<svg height="483.420782" viewBox="0 0 92.231224 215.09549" width="206.859125" xmlns="http://www.w3.org/2000/svg"><path d="m0 0c-6.335 4.129-12.398 8.263-18.788 12.395-.443 1.27.272 2.152.109 3.308-.606 1.324-2.151.992-3.14 1.764-5.898 4.353-12.345 7.33-18.022 12.288-.275.661-.55 1.432-.881 2.094-.607 1.213-1.614 3.872-1.756 3.855-2.72 2.891-6.677 3.934-10.42 4.732-1.873 3.914-2.536 8.322-3.858 12.453-1.545 4.794-1.984 9.975-3.141 14.933.164.168.109.443.385.497 1.267.423 5.429 1.463 6.582 1.629.228-1.111 1.522-4.893 1.974-6.092 2.947-7.8 10.575-14.184 19.115-10.176 6.67 3.132 7.406 8.98 7.072 15.568-.357 7.01-2.186 15.011-6.103 20.947.33.988.678 1.546.842 2.59.605 3.859 0 7.662-3.03 10.196-3.031 2.59-7.219.825-10.47.274-.057.058-.167.167-.276.276 1.487 1.379.824 3.913.937 5.677.164 2.038-1.435 4.297.55 5.841.188 1.12.312 2.515-.55 3.405-.347.359-3.117 1.119-3.092.875-.242 2.434-2.107 5.302-3.588 7.342-1.739 2.397-4.719 3.946-5.752 6.779-.851 2.336 1.829 6.721 2.403 9.372 1.762 8.155-1.708 15.045-7.661 19.948-5.031 4.153-15.911 9.173-26.352 8.911-10.966-.272-20.531-3.68-28.685-8.846-11.278-7.15-23.399-19.389-29.098-32.148-4.815-10.773-6.833-29.477 8.836-38.098 6.762-3.722 15.515-5.25 23.058-3.991 3.639.607 7.44 1.268 11.078 2.206 1.158-1.49 2.59-2.866 3.195-4.631-.77-.551-1.762-.551-2.808-.494-2.502.134-7.984-3.391-9.263-5.449-1.724-2.776-1.233-6.946.292-9.709 1.582-2.864 5.337-3.605 8.263-4.569 3.385-1.115 7.276-1.534 10.775-2.09 2.365-.377 4.934-.155 7.31.005.975.065 6.293 1.219 6.866.651.167-.167.332-.331.497-.552 1.488-3.362 3.196-6.558 5.015-9.754 2.755-4.739 4.408-9.81 7.054-14.546-2.866-3.307-3.638-7.716-4.905-11.793-6.17-5.236-12.453-10.142-19.341-13.778-2.589-1.324-1.434-4.353-1.543-6.336-4.495-4.152-9.187-8.081-13.647-12.271-3.857-3.625-9.224-8.051-11.478-12.956-1.108-2.409 2.304-7.075 3.78-8.852 2.303-2.778 5.011-5.184 7.876-7.366 5.615-4.275 11.856-7.683 17.271-12.23.265-.223-8.051-2.129-8.992-2.318-.913-.184-6.568-.949-6.217-2.586.494-2.261.881-4.573 2.148-6.498 3.286-5 8.201-9.348 13.787-11.573 2.801-1.113 5.772-1.623 8.774-1.245 3.355.421 6.13 1.599 9.401 2.402-.454-.114 2.927-6.823 3.273-7.344 2.469-3.727 5.609-5.202 6.261-9.959 2.754-20.117 2.426-41.608-.497-61.664-3.968-4.575-9.202-7.053-15.65-6.061-.11.11-.222.276-.386.385-.053 4.684-.441 9.257-2.481 13.116-1.321 2.313-4.077 4.023-6.612 3.142-6.391-2.151-9.422-9.203-10.359-15.322-5.234-7.438-7.99-16.09-7.272-25.788.219-.386.606-.718.936-1.048 8.045-4.739 18.238-6.668 28.047-4.52 8.707 1.931 17.249 3.914 25.24 7.275 2.755-1.213 5.348-2.693 7.934-4.078 16.278-8.726 36.88-2.619 37.485-2.287 3.253 4.521 2.907 10.112 2.577 15.733 2.478 6.888 2.59 15.593.277 22.483-.884 2.646-2.316 5.289-5.017 6.89-2.204 1.32-5.51 2.145-7.935.826-5.458-3.031-6.942-8.926-8.046-14.328-4.186-2.479-9.531-1.213-14.437-1.544-.109.167-.439.057-.385.386-2.206 13.5-2.754 26.783-1.213 40.722.869 7.854 2.591 15.563 4.425 23.237.809 3.384 1.17 7.654 2.736 10.74 1.525 3.004 3.424 5.106 3.648 8.744.096 1.58 1.033 9.315.032 10.237 2.769-2.55 6.2-3.948 10.209-3.63 5.597.446 10.025 4.135 13.068 8.629 1.58 2.33 2.677 4.84 3.835 7.389 1.26 2.775 1.285 4.909 1.228 7.967-.073 4.027-2.194 8.019-6.777 5.662-.407-.209-3.537-1.889-3.531-1.873 3.639 8.981 9.369 17.082 11.354 26.726.661 3.143-2.095 5.348-4.355 6.891zm-70.092-29.106c-3.085 1.209-6.171 2.422-9.257 3.69-5.564 2.258-10.857 5.072-16.037 8.213 1.323 6.281 8.101 9.973 12.068 15.209.938 0 1.324-1.377 2.26-1.6 1.598-1.49 4.464-1.158 6.336-.824 2.977 2.809 4.135 6.611 7.276 9.146-.277-11.351-1.985-22.32-2.646-33.834zm44.139.284c-.165 0-.387-.332-.496 0-.305.84-.33 1.908-.749 2.693-2.271 10.631-4.686 21.201-7.212 31.723 2.245-.836 4.155-2.385 6.254-3.612 1.322-.33 2.532.496 3.802.77 2.535-1.816 5.069-3.859 7.437-5.95 1.655-1.49 2.667-2.679 4.354-5.016-4.738-6.776-8.099-14.104-13.39-20.608" fill="#211e1f" transform="matrix(.60426200684 0 0 -.60426200684 89.53937542639 103.74625258829)"/><path d="m0 0c-.379-.217-2.537-1.445-3.108-1.584-1.267-2.701-3.085-5.236-2.534-8.488.012-.061 1.202.351 1.33.379.744.152 1.677.043 2.253-.485 1.065-.982.524-2.332-.024-3.373-.095-.183-1.286-2.409-1.384-2.345 1.638-.282 3.467.642 4.823 1.859 3.46 3.106 6.564 11 3.39 15.191-.282.155-.592.268-.966.292-1.486 0-2.57-.749-3.78-1.446" fill="#8da5d5" transform="matrix(.60426200684 0 0 -.60426200684 86.62260271939 124.60054296821)"/><path d="m0 0c.713.224 1.843.426 2.392-.067.997-.897.418-2.791.117-3.87-.412-1.461-1.512-2.941-3.123-3.232-1.307-.236-3.077.383-3.249 1.879-.14 1.25.606 2.432 1.337 3.377.575.748 1.401 1.512 2.311 1.84.065.025.136.047.215.073" fill="#211e1f" transform="matrix(.60426200684 0 0 -.60426200684 86.78514919923 124.97276836442)"/><path d="m0 0c.498-.387 1.435-.275 1.711-.881.107-4.299-1.654-8.213-5.291-10.58-3.858.273-6.834 2.863-9.92 5.125-.604 4.188-1.862 8.095-2.226 10.729-.365 2.634-1.354 4.863-1.08 6.849 5.235-4.685 11.462-6.888 16.806-11.242" fill="#e19f13" transform="matrix(.60426200684 0 0 -.60426200684 76.02022154745 94.25752629495)"/><path d="m0 0c5.729-4.243 12.013-7.438 17.579-11.902s.386-10.526-1.213-15.101c-3.139-9.148-9.257-17.08-11.351-26.668-.606-2.867 1.599-5.071 3.692-6.118 1.819-.879 4.076.166 5.675 1.599 1.683 1.51 2.878 3.597 3.687 5.69.846 2.195 1.353 4.7.828 7.035-.147.658-.382 1.3-.724 1.885-.183.312-.335.568-.681.709-.43.177-.911.109-1.361.146.498.233 1.24.34 1.773.178.543-.164 1.002-.711 1.283-1.184.619-1.047.627-2.326.571-3.504-.022-.472-.072-.949-.085-1.422-.165-5.952-2.921-11.187-6.833-15.484-3.086-3.363-7.275-5.015-11.904-5.015-3.526 0-5.95 3.138-8.485 5.399-.222.605-.66 1.489-.109 2.151.88 1.103 2.258 1.318 3.031 2.477-1.378 5.458-2.371 10.965-3.031 16.697 2.644 5.512 6.059 10.8 9.642 15.982 1.818 2.646 3.581 5.123 5.125 7.827.772-.387 1.708-1.655 2.533-.665.939 2.041-1.418 2.743-3.306 4.081-3.634 3.082-7.384 6.334-11.129 9.531v.385c1.378 1.711 2.369 3.638 3.306 5.568.606.164.936-.332 1.487-.277" fill="#b9d7cd" transform="matrix(.60426200684 0 0 -.60426200684 78.75148581835 97.92056258039)"/><path d="m0 0c-2.48 3.305-2.975 7.492-3.693 11.514-1.098 5.763-.505 12.238-3.061 17.351-2.346 1.641-7.456-1.189-8.73-3.076-4.356-6.561-6.616-14.053-6.227-22.648.164-.332.11-1.105.825-.883.11 2.092.11 4.243 1.818 5.785.882.828 1.763.496 2.811.385 3.414-1.875 1.764-6.006 1.434-8.982 1.156-.827 2.809-1.046 4.35-1.321-.109.22.22.22.168.385-.717 1.599-1.049 3.802-.277 5.456.384.768 1.213 2.26 2.372 1.598 2.975-1.709 4.406-5.125 3.692-8.377 1.729-.126 12.461 1.198 15.105 2.018-3.45-.611-6.974-.558-10.587.795" fill="#8da5d5" transform="matrix(.60426200684 0 0 -.60426200684 42.39122808102 212.03665109533)"/><path d="m0 0c-1.048 2.258-2.48 4.626-4.74 6.061-1.257.784-5.355.225-6.984-.541.127.049.242.114.372.156-4.078-6.506-2.7-15.211-5.402-22.209-.99-2.535-3.305-5.18-5.949-6.119-.041.01-.081.016-.119.025 1.741-.589 5.14-1.036 5.906-.795 1.816 2.645 1.597 6.614 4.793 8.598.99.275 2.094.053 2.865-.83 1.819-2.037 1.102-5.013 0-7.108 1.047.278 2.315-.054 3.086.774-.378 2.326.628 8.825 4.354 7.822 2.982-.803 1.676-4.808 1.087-6.734.829.207 1.7.984 1.943 1.832 1.764 5.949 1.432 13.611-1.212 19.068" fill="#8da5d5" transform="matrix(.60426200684 0 0 -.60426200684 87.67643565932 199.88312935185)"/><path d="m0 0c2.924-1.599 7.332-1.876 10.031.495.274.239.465.516.628.807-.144-.256-2.401.264-2.675.307-1.041.163-2.594.62-3.241 1.531-1.919 2.689.765 5.517 3.305 6.335.056.276 0 .498-.221.665-1.104-.278-2.258-.11-3.196.275-1.046.439-1.816 1.543-1.873 2.644 0 .828.66 1.543.44 2.26-3.36-1.709-9.589-3.324-13.588-3.39.208-.379-.279-.868-.188-1.238.993-5.071 6.449-8.485 10.578-10.691" fill="#8da5d5" transform="matrix(.60426200684 0 0 -.60426200684 36.22896413531 141.71263873979)"/><path d="m0 0c9.422-2.314 20.246-8.215 22.449-18.741 1.047-4.959-1.484-10.772-3.411-15.015-6.669.771-12.619-.662-18.24-3.032-7.879-3.306-15.706-8.102-21.436-15.211-.388-.439.22-.66.385-.936.716.111.882.882 1.322 1.325.884.33 1.49 1.542 2.37 1.872.384-.993-.055-2.479 0-3.857.661-11.243 3.363-23.418 14.163-28.544 4.516-2.204 11.406-1.598 15.482 1.818 2.261 1.929 2.536 4.518 3.804 6.776.662-.217.826-1.101 1.211-1.596 1.323-3.858 2.26-7.824 3.196-11.791-4.463-2.813-9.698-3.803-14.822-4.907-8.706-1.763-18.516-2.589-27.386-.661.163.993 1.542 1.267 2.259 2.149-.277.386-.661.937-1.214.937-2.148 0-3.249-2.479-4.462-3.856-.278-.772-.552-1.928 0-2.647.496-.715.991.553 1.158.94 0 1.155 1.871.66 2.643.495 13.833-2.15 27.886.275 40.228 4.242.715.22 1.322 1.103 2.095.826.33-2.204.937-4.242 1.044-6.503-2.532-1.486-5.674-2.369-8.595-3.306-12.565-4.022-27.993-4.905-40.832-.936-1.984.607-4.629 1.543-5.016 3.859-1.21 1.486-1.817 3.526-.661 5.124 1.766 2.645 4.465 5.069 7.496 5.841 4.352 1.047 10.137 1.047 14.822.11.164.275.496.111.66.439.057.387-.44.662-.772.774-2.863.605-6.003.937-8.871 1.212-2.202 2.809-2.521 5.607-5.275 8.034-.474.416-6.792-1.625-7.643-1.869-12.358-3.538-27.483 2.093-33.158 11.628-9.681 16.717 6.022 40.195 15.813 48.999 17.561 15.789 32.277 20.119 49.194 16.008" fill="#b9d7cd" transform="matrix(.60426200684 0 0 -.60426200684 43.27405487301 1.77462188673)"/><path d="m0 0c0-1.047-1.213-1.376-1.873-1.983-.773-.054-1.544.331-1.71 1.103.22.827 1.158 1.155 1.819 1.542.717.111 1.322 0 1.764-.662" fill="#016a57" transform="matrix(.60426200684 0 0 -.60426200684 31.76890626286 4.12580535533)"/><path d="m0 0c-.108-1.047-1.376-1.653-2.257-1.982-.608-.223-1.323.108-1.876.44-.438.275-.054.66 0 1.046 1.159.774 3.197 1.928 4.133.496" fill="#016a57" transform="matrix(.60426200684 0 0 -.60426200684 36.56251676309 5.32405691489)"/><path d="m0 0c.108-.221.55-.331.384-.66-1.046-.277-2.148-.168-3.416-.223-4.958-.332-9.918-1.212-14.439-2.81-2.864-.992-5.398-3.029-7.933-4.627-.827 1.045 1.046 2.146 1.874 2.808 6.391 5.125 15.209 6.835 23.53 5.512" transform="matrix(.60426200684 0 0 -.60426200684 47.4192922399 7.32114284748)"/><path d="m0 0c-.332-1.101-1.654-1.93-2.81-2.095-.44-.053-.772.443-.936.771.44.939 1.598 1.818 2.535 2.262.55.054.937-.498 1.211-.938" fill="#016a57" transform="matrix(.60426200684 0 0 -.60426200684 31.36888481433 8.92002011756)"/><path d="m0 0c-.386-.388-.936.109-1.045.495-.222.936.99 1.544 1.595 1.984.663.496 1.05-.44 1.326-.772-.497-.606-1.102-1.433-1.876-1.707" fill="#016a57" transform="matrix(.60426200684 0 0 -.60426200684 25.50814761003 10.81740281903)"/><path d="m0 0c-1.158-.496-1.377-2.919-2.92-1.982-.826.494-.055 1.323-.11 1.982.716.661 2.535 1.487 3.03 0" fill="#016a57" transform="matrix(.60426200684 0 0 -.60426200684 19.04858675696 10.98478339492)"/><path d="m0 0c-.055-.276-.33-.55-.551-.55-8.484.056-16.367-2.038-23.916-4.628-3.361-1.156-5.897-4.135-8.871-6.228-.222 0-.332.276-.553.386-.219.442.387.604.442.936 5.674 7.441 14.272 8.485 22.318 10.304 3.361.772 7.33.885 10.745.168.111-.168.22-.275.386-.388" transform="matrix(.60426200684 0 0 -.60426200684 52.38028331603 11.4512736642)"/><path d="m0 0c-.771-.99-1.596.054-2.535 0-8.597-.33-16.256-2.701-23.144-6.997-.496 0-.662.385-.386.769 6.171 4.961 13.392 7.717 21.436 7.937 1.653.056 3.968.221 4.629-1.709" transform="matrix(.60426200684 0 0 -.60426200684 52.54645536791 17.77789687577)"/><path d="m0 0c-.66-.828-1.653-2.591-2.92-2.205-.551.495-.551 1.157 0 1.707.773.772 2.369 1.931 2.92.498" fill="#016a57" transform="matrix(.60426200684 0 0 -.60426200684 12.08930122423 18.50905390404)"/><path d="m0 0c-.222-.824-.827-1.489-1.545-1.762-.494.109-1.044.273-1.212.826.279.992 2.04 2.755 2.757.936" fill="#016a57" transform="matrix(.60426200684 0 0 -.60426200684 14.32084081548 20.64149452616)"/><path d="m0 0c3.969-4.463 7.884-8.928 9.81-14.272.937-.937 2.59-.275 3.307-1.598.497-1.049-.277-1.984-1.213-2.095-5.18-.607-9.864-2.093-14.549-3.691.223 1.103-2.258 2.699.111 3.14 2.371.496 4.574 1.322 6.889 1.984.165.331 1.102.662.549 1.047-1.156.77-2.808.055-4.131-.222-2.161-.453-4.371-2.083-6.465-2.307-1.659 6.165-5.077 11.717-9.131 16.582 4.079 1.376 8.653 1.597 13.226 1.816.496-.219 1.213.058 1.597-.384" fill="#91bbb2" transform="matrix(.60426200684 0 0 -.60426200684 55.01003156977 23.53772232493)"/><path d="m0 0c.442-2.04.116-3.547-.103-5.53-.113 0-.387-.164-.276.111-2.648 3.638-6.338 6.392-10.196 7.934 2.316 1.16 5.345.772 7.934.112.884-.22 2.419-1.635 2.641-2.627" fill="#b9d7cd" transform="matrix(.60426200684 0 0 -.60426200684 69.79148878099 44.07175384122)"/><path d="m0 0c1.819-5.998 4.031-20.899-2.147-25.183-6.771-4.694-15.532-.094-19.522 13.275-2.369 8.101-3.183 15.966-6.379 23.628-.497 1.156-1.654 1.983-2.26 3.03-.054 1.267-.008 2.618.247 3.99 3.965.605 8.328.052 12.298-.389 6.469-.744 15.233-10.018 17.763-18.351" fill="#b9d7cd" transform="matrix(.60426200684 0 0 -.60426200684 72.29192496528 53.79493379321)"/><path d="m0 0c-.937-.883-1.269-3.143-2.811-2.645-1.433.993.607 1.93.663 2.92.606.826 1.762.773 2.148-.275" fill="#016a57" transform="matrix(.60426200684 0 0 -.60426200684 9.79189707424 24.90335446038)"/><path d="m0 0c2.035-2.566 2.963-5.746 4.237-8.714.561-1.302 1.414-4.671 3.469-3.837.56-1.166.793-1.961-.029-2.663-.802-.687-3.051-.905-4.086-1.262-2.72-.935-5.383-2.018-8.023-3.156-1.146-.494-13.271-6.131-13.036-6.651-2.866 6.336-3.97 14.27-2.646 21.546 4.74 4.243 10.525 6.004 15.759 8.981 1.985-.605 3.087-2.645 4.355-4.244" fill="#91bbb2" transform="matrix(.60426200684 0 0 -.60426200684 47.01927079138 27.53431123814)"/><path d="m0 0c-.496-1.216-2.04-1.434-3.305-1.711-2.427-.606-4.519-2.369-6.89-2.644-.219.164-.275.386-.275.66 2.866 2.041 6.173 2.866 9.257 4.353.442-.165.938-.221 1.213-.658" transform="matrix(.60426200684 0 0 -.60426200684 48.21752235093 35.19091512676)"/><path d="m0 0c1.099.661 2.862.055 3.69 1.157.111 3.031-.714 5.565-.769 8.485l-6.229-1.598c.494-.935.88-1.983 1.047-3.029.221-1.653.77-3.087.935-4.741z" fill="#692d31" transform="matrix(.60426200684 0 0 -.60426200684 58.77458387236 41.5858199451)"/><path d="m0 0c1.047-2.975 1.708-6.005 1.984-9.255.496-.882 1.486-1.05 2.203-.937 1.211.164 2.37.99 2.92 2.093-.274 3.472-.99 6.776-1.431 10.194z" fill="#692d31" transform="matrix(.60426200684 0 0 -.60426200684 46.5527805221 39.82137488514)"/><path d="m0 0c.278-3.36 1.379-8.211-1.486-10.47-1.267.274-2.809 0-4.076.274v.276c1.099.661 2.862.055 3.69 1.157.111 3.031-.714 5.565-.769 8.485.823.222 1.927 1.215 2.641.278" fill="#fffac6" transform="matrix(.60426200684 0 0 -.60426200684 62.13548915438 35.59154083729)"/><path d="m0 0c.221-1.653.77-3.087.935-4.741-1.431-.329-3.581-.053-5.288-.274-.33-.055-.551-.22-.939-.164-.439 2.037-.163 4.188-.935 6.225 1.486 1.269 3.472 1.323 5.18 1.983.494-.935.88-1.983 1.047-3.029" fill="#fffac6" transform="matrix(.60426200684 0 0 -.60426200684 57.40834747491 38.55544598082)"/><path d="m0 0c.334-3.598.791-6.968-.279-10.734-1.353-4.771-4.852-8.224-9.911-8.515-4.083-.233-8.83 1.346-11.467 4.591-1.433 1.763-2.863 3.472-3.47 5.566 4.848 3.14 9.808 6.06 15.099 8.046.22.056.331-.164.55-.112 1.047-2.975 1.708-6.005 1.984-9.255.496-.882 1.486-1.05 2.203-.937 1.211.164 2.37.99 2.92 2.093-.274 3.472-.99 6.776-1.431 10.194.993.662 3.542 1.874 3.802-.937" fill="#fffac6" transform="matrix(.60426200684 0 0 -.60426200684 52.27997582289 39.12163948122)"/><path d="m0 0c1.542-3.912 2.206-8.209 3.474-12.288 2.863-9.587 6.168-18.958 8.979-28.6-1.432 2.48-4.517 3.031-6.612 5.07-1.655 1.543-4.959 2.921-4.354 5.785-3.914 9.315-8.651 18.242-12.564 27.498-.109.275.055.496.11.662 3.582.881 7.054.936 10.58 1.984.22.111.22-.22.387-.111" fill="#b9d7cd" transform="matrix(.60426200684 0 0 -.60426200684 51.64791776374 63.32958399908)"/><path d="m0 0c-1.709-3.416-2.094-7.496-2.753-11.242-.993 2.258-1.216 5.014-2.427 7.273-.439 2.371-1.156 4.629-1.82 6.889 2.593-.273 4.74-1.766 7-2.92" fill="#e19f13" transform="matrix(.60426200684 0 0 -.60426200684 62.20316649915 82.2750106994)"/><path d="m0 0c.11-.662-1.045-.827-.937-1.597 2.866-4.078 7.055-7.165 11.132-9.368.336-.183-2.661-8.335-3.555-8.597-1.144-.336-5.424 3.318-6.399 4.119-.965.796-4.225 3.979-4.044 5.358.495 3.747 2.096 6.999 3.14 10.47.332.164.443-.275.663-.385" fill="#e19f13" transform="matrix(.60426200684 0 0 -.60426200684 51.24789631522 81.14322796059)"/><path d="m0 0c.386-2.315 1.324-4.41 1.598-6.78-.994 2.37-5.677 2.039-3.693 5.455.275 1.047.498 2.15.938 3.143.881-.057.827-1.212 1.157-1.818" fill="#e19f13" transform="matrix(.60426200684 0 0 -.60426200684 63.63526745535 84.57241484939)"/><path d="m0 0c1.33-.913 1.099-3.807 1.242-5.12.29-2.633 1.389-5.153 2.062-7.72 4.08-15.539 7.99-31.246 11.132-47.114.715-3.639 1.929-7.001 2.094-10.803-9.643-4.849-20.772-7.823-32.51-6.117.134-.021.281 6.991.17 7.69-.577 3.735-2.516 7.031-4.871 9.922-1.604 1.967-3.541 3.633-5.331 5.424-.876.875.259 8.334.3 9.886.091 3.62.178 7.241.354 10.856.324 6.75 1.716 13.211 2.212 19.869.11 1.486 3.581 1.93 1.323 3.525-.111 0-.222 0-.386 0-4.629-4.847-8.872-10.468-13.611-15.427-1.599.055-3.857.107-4.521 1.984 0 1.102 1.325 1.377 1.987 1.984.275-.882-.11-2.093.935-2.535.828.165 1.048 1.104 1.323 1.707-.163 3.746-1.488 7.494-5.124 9.258-1.324.664-2.533 1.434-3.969 1.707-2.517-3.293-2.287-1.34-2.174.643 3.25 2.398 5.813 2.775 8.787 5.201 3.307 2.755 7.11 4.958 10.139 8.32.276.055.442-.054.662-.109 3.194-4.244 7.605-8.71 12.455-10.855 4.022 1.595 2.479 6.611 4.905 9.369.936-.332 1.046-1.493 1.705-2.207.773-1.874 1.546-3.803 2.922-5.291.662-.11.828.606 1.047 1.047.275 2.919-.604 5.896.275 8.597 1.765-.551 2.922-2.645 4.466-3.691" fill="#e19f13" transform="matrix(.60426200684 0 0 -.60426200684 64.66795122503 90.16667250867)"/><path d="m0 0c.609-.715 1.104-1.597 1.104-2.423-.495 0-.881-.386-1.322-.497-2.286-2.96-13.95-12.957-15.209-18.791-1.93.663-3.471 2.094-5.181 3.198-2.314-.885-.22-2.481.774-3.198 5.399-3.8 11.02-6.943 16.971-9.365 9.863-4.08 21.821-11.078 24.576-22.761 1.322-5.676-1.1-10.469-4.518-14.438-4.738-5.456-12.069-7.326-19.175-5.398-5.678 1.598-10.802 5.398-14.385 10.855-1.211 1.709-1.761 3.799-1.707 5.783.165.276.629.194.959.194.121-.448-.298-.799-.188-1.238.993-5.071 6.449-8.485 10.578-10.691 2.924-1.599 7.332-1.876 10.031.495 1.35 1.184 1.094 2.971.975 4.568-.393 5.391-2.416 11.058-7.146 14.113-3.416 2.206-7.274 3.967-10.745 6.061-6.778 4.078-13.335 10.248-17.691 16.918-1.873 2.864 1.159 5.509 2.868 7.658 6.886 8.6 16.035 15.543 24.742 21.604 1.486-.33 2.699-1.545 3.689-2.647" fill="#b9d7cd" transform="matrix(.60426200684 0 0 -.60426200684 40.29141760727 100.15754052969)"/><path d="m0 0c.136-.206.23-.43.266-.676.176-1.218-.245-2.356-1.461-2.803-.784-.291-1.627-.216-2.446-.262-.653-.037-1.289-.105-1.94.046-1.195.275-2.17 1.38-2.423 2.544-.29 1.336.921 2.264 2.026 2.69 1.394.535 2.547.713 3.909-.004.673-.354 1.609-.838 2.069-1.535" transform="matrix(.60426200684 0 0 -.60426200684 37.23747742472 135.68935505565)"/><path d="m0 0c.331-7.439.658-15.76-5.679-20.666-2.974-2.258-6.445-3.691-10.302-4.078-1.487-.989-1.324-2.754-1.487-4.242-2.039-22.152-2.095-44.524-2.204-66.897-.058-6.777-1.05-13.943-.663-20.5-.498-1.267-1.819-1.156-2.811-1.487-8.817-2.864-18.019-8.819-27.882-5.122-2.48 3.305-2.975 7.492-3.693 11.514-1.104 5.785-.498 12.289-3.087 17.414 5.733-3.69 9.039-9.809 11.407-15.594.275-.168.387-.609.773-.496.66.55.274 1.706.274 2.478 0 1.434-1.927 2.479-.772 3.693 2.594-.164 4.906-1.048 7.275-1.818.663.715-.714 2.037 1.047 2.26 6.887 3.964 8.534 11.242 9.141 18.573.77 9.314 1.542 18.076 1.706 27.664.081 4.938 0 9.614-.17 14.547-.171 4.962-.01 9.826-.964 14.206-.97 4.446-3.488 7.279-6.195 10.829-1.967 2.585-2.942 5.236-3.242 8.46 2.865 1.768 4.078 4.856 5.786 7.279 6.501-.827 13.225-.058 19.452 1.157 4.242.826 7.826 2.699 11.902 3.689.112-.933.332-1.927.388-2.863" fill="#b9d7cd" transform="matrix(.60426200684 0 0 -.60426200684 73.22550976584 137.71725835059)"/><path d="m0 0c-1.377-4.908-2.535-9.865-3.471-14.826-1.101-5.728-2.095-11.352-2.37-17.195-.773-16.032.441-32.786 5.181-47.332.331-1.158.991-2.207 1.047-3.475-1.268-1.154-3.306-2.148-3.582-3.965.384-.992 1.32-.275 1.872-.112 1.323.882 2.205 2.757 3.968 2.647 1.488 1.762 3.804 1.543 5.896 1.708.166-2.922-1.486-6.555.441-9.26.331-.108.607.279.662.554.825 4.683 1.599 9.37 3.527 13.613 1.212 2.531 2.81 5.673 5.841 6.612-4.078-6.506-2.7-15.211-5.402-22.209-.99-2.535-3.305-5.18-5.949-6.119-4.299.884-8.597 1.652-12.455 3.473-2.643 1.213-5.346 2.314-7.66 4.355 1.158 12.783 1.378 25.622 1.709 38.627.166 6.561.274 13.445.274 20.057 0 10.472 1.819 20.611 2.536 30.97 2.59.715 5.346 1.047 7.495 2.756.716.276.604-.604.44-.879" fill="#b9d7cd" transform="matrix(.60426200684 0 0 -.60426200684 69.32862408375 153.5320035935)"/><path d="m0 0c2.589-5.292 2.81-12.012 2.754-18.073-.056 0-.165 0-.219 0-1.654 3.25-3.748 7.766-7.715 8.595-4.794.937-9.368-.993-12.125-5.293-1.376-2.146-2.644-4.238-3.305-6.608-1.378-.446-3.031-.276-4.353-.664-1.103.057-1.874-.661-2.922-.661-1.544 2.977-2.59 6.171-3.029 9.643.052.056.163.166.22.275 5.621.663 12.4-1.985 16.257 3.308.495 5.124 3.304 10.359 8.097 12.672 2.757.332 5.127-.659 6.34-3.194" fill="#b9d7cd" transform="matrix(.60426200684 0 0 -.60426200684 87.60996683856 188.9623021023)"/><path d="m0 0c1.376-3.968 1.156-8.542 2.369-12.563.991-3.141 5.18-1.488 7.659-1.323 2.81.992 5.73 1.6 7.935 3.856-.33-1.268-.153-2.059-1.432-3.58-2.262-2.59-5.238-4.906-8.597-3.969-1.487.385-3.139.442-4.629.773-2.865 3.528-5.621 8.376-10.03 10.303-2.037.223-4.462.938-5.949-.88.329 1.818 1.212 3.8 2.203 5.509 1.322 2.26 3.142 4.52 5.841 4.905 2.205.332 3.968-1.156 4.63-3.031" fill="#b9d7cd" transform="matrix(.60426200684 0 0 -.60426200684 42.22505602914 189.02937518506)"/><path d="m0 0c1.732-3.896-2.179-12.783-5.948-6.561-1.116 1.844-1.395 4.138-.662 6.176.494 1.377 1.048 3.137 2.754 3.69 1.765-.165 3.142-1.708 3.856-3.305" transform="matrix(.60426200684 0 0 -.60426200684 37.19517908424 198.3851638369)"/><path d="m0 0c1.655-3.027.332-6.777-1.044-9.532-.497-.991-1.652-1.267-2.646-.937-2.127.711-2.716 3.696-2.866 5.674-.176 2.316.518 5.309 2.591 6.614 1.488.939 3.249-.384 3.965-1.819" transform="matrix(.60426200684 0 0 -.60426200684 85.6769326787 200.05171845175)"/><g fill="#7a87c2"><path d="m0 0c.05-.18.059-.387.055-.568-.017-.823-.969-2.582-1.866-2.741-1.721-.304-.457 3.737 1.295 3.741.302.003.449-.188.516-.432" transform="matrix(.60426200684 0 0 -.60426200684 87.44983740675 126.35531983606)"/><path d="m0 0c.055-.606-.053-1.156-.384-1.598-.883-.109-1.433.608-1.984 1.213.164.715 1.818 1.432 2.368.385" transform="matrix(.60426200684 0 0 -.60426200684 84.74455640215 131.71814514673)"/><path d="m0 0c.412-.488.564-.924-.209-.9-.519.015-1.126.162-1.512.531-.363.347-.77 1.779.042 1.914.361.06.881-.599 1.071-.853.171-.229.404-.452.608-.692" transform="matrix(.60426200684 0 0 -.60426200684 40.13189243747 134.15996791635)"/><path d="m0 0c.524-1.2-1.986-.92-2.62-.881-.744.046-1.492.177-2.003.775-.218.883.608 1.267 1.214 1.434 1.246.34 2.734-.002 3.373-1.252.015-.025.028-.049.036-.076" transform="matrix(.60426200684 0 0 -.60426200684 36.29241164603 136.38788193555)"/><path d="m0 0c.004-.054.008-.113.011-.18.079-.977.381-1.971.338-2.953-.023-.537-.117-.534-.642-.502-.533.035-1.063.138-1.574.291-1.898.568-1.388 3.252.389 3.629.284.059.721.156 1.012.136.423-.029.449-.154.466-.421" transform="matrix(.60426200684 0 0 -.60426200684 41.68545005704 137.42177422925)"/><path d="m0 0c.547-2.679-.305-6.611-1.406-6.42-2.841.494-2.608 9.1-.44 8.817 1.013-.133 1.587-1.125 1.846-2.397" transform="matrix(.60426200684 0 0 -.60426200684 36.21385758514 198.80210462162)"/><path d="m0 0c-.313-.615-.762-.987-1.405-.65-1.073.56-1.166 5.536-.586 6.437.497.775.608 1.767 1.434 2.261 1.61-1.273 1.6-3.428 1.277-5.273-.093-.538-.272-1.902-.72-2.775" transform="matrix(.60426200684 0 0 -.60426200684 84.41644213244 204.84774600001)"/><path d="m0 0c-.056-.66-.274-1.267-.662-1.814-2.03-.27-2.366 2.041-2.216 3.598.081.859.985 4.861 2.219 3.009.88-1.318.88-3.193.659-4.793" transform="matrix(.60426200684 0 0 -.60426200684 32.7006782774 210.94051981493)"/><path d="m0 0c.164-1.986-1.269-3.197-2.26-4.633-1.321-.162-.275 1.324-.386 1.986.606.991.717 5.235 2.646 2.647" transform="matrix(.60426200684 0 0 -.60426200684 86.74405938277 210.27220603537)"/><path d="m0 0c-.22-.664-1.212-.389-1.708-.275-1.323 1.429-1.433 3.636-.937 5.455.496.439.825-.276 1.213-.551.935-1.324 1.982-2.977 1.432-4.629" transform="matrix(.60426200684 0 0 -.60426200684 38.62788430245 213.16964235815)"/><path d="m0 0c.552-2.146-.605-4.131-2.149-5.563-.661-.167-1.377.165-1.322.934.221 2.151.551 4.3 2.26 5.678.661.053 1.046-.494 1.211-1.049" transform="matrix(.60426200684 0 0 -.60426200684 81.54861464799 210.60757144917)"/></g><path d="m0 0 2.953 1.089s2.323-8.123 1.725-9.566c-.465-1.119-2.793-1.66-2.814-.985-.036 1.056-1.864 9.462-1.864 9.462" fill="#692d31" transform="matrix(.60426200684 0 0 -.60426200684 47.38907913956 39.49809471148)"/><path d="m0 0 3.026.739s1.722-5.91 1.159-7.527c-.175-.504-2.796-1.03-2.812-.457-.071 2.496-1.373 7.245-1.373 7.245" fill="#692d31" transform="matrix(.60426200684 0 0 -.60426200684 57.78057287112 36.4592610791)"/></svg>